# xmcd CD database file
#
# Track frame offsets:
#	150
#	24762
#	51912
#	66612
#	83562
#	109140
#	129912
#	171017
#	189992
#	210742
#	234545
#
# Disc length: 3604 seconds
#
# Revision: 0
# Processed by: cddbd v1.5.1PL2 Copyright (c) Steve Scherf et al.
# Submitted via: CDex 1.50
#
DISCID=8d0e120b
DTITLE=Carol Sloane - Ballad Essentials
DYEAR=2000
DGENRE=Jazz
TTITLE0=I'm Getting Sentimental Over Your
TTITLE1=Autumn Nocturne
TTITLE2=In The Wee Small Hours Of The Morning
TTITLE3=Soon
TTITLE4=You Go To My Head
TTITLE5=Heart's Desire
TTITLE6=One For My Baby
TTITLE7=Moonlight In Vermont
TTITLE8=I Was Telling Him About You
TTITLE9=You Must Believe In Spring
TTITLE10=The Folks Who Live On The Hill
EXTD=YEAR: 2000
EXTT0=
EXTT1=
EXTT2=
EXTT3=
EXTT4=
EXTT5=
EXTT6=
EXTT7=
EXTT8=
EXTT9=
EXTT10=
PLAYORDER=
